<?xml version="1.0" encoding="utf-8"?>
<!-- Generator: Adobe Illustrator 25.3.1, SVG Export Plug-In . SVG Version: 6.00 Build 0)  -->
<svg version="1.1" id="Layer_1" xmlns="http://www.w3.org/2000/svg" xmlns:xlink="http://www.w3.org/1999/xlink" x="0px" y="0px"
	 viewBox="0 0 30.4 30" style="enable-background:new 0 0 30.4 30;" xml:space="preserve">
<style type="text/css">
	.st0{fill:#FFDD49;}
</style>
<g>
	<path class="st0" d="M0.7,29.3C1.2,29.8,1.8,30,2.5,30c0.6,0,1.3-0.2,1.7-0.7l6.9-6.9c2,1.4,4.4,2.2,7,2.2
		c6.8,0,12.3-5.5,12.3-12.3C30.4,5.5,24.9,0,18.1,0S5.8,5.5,5.8,12.3c0,2.4,0.7,4.6,1.9,6.5l-7,7C-0.2,26.8-0.2,28.3,0.7,29.3z
		 M9.8,12.3c0-4.6,3.7-8.3,8.3-8.3c4.6,0,8.3,3.7,8.3,8.3s-3.7,8.3-8.3,8.3C13.5,20.6,9.8,16.9,9.8,12.3z"/>
</g>
</svg>
