<?xml version="1.0" encoding="utf-8"?>
<!-- Generator: Adobe Illustrator 25.3.1, SVG Export Plug-In . SVG Version: 6.00 Build 0)  -->
<svg version="1.1" id="Layer_1" xmlns="http://www.w3.org/2000/svg" xmlns:xlink="http://www.w3.org/1999/xlink" x="0px" y="0px"
	 viewBox="0 0 329.3 65.9" style="enable-background:new 0 0 329.3 65.9;" xml:space="preserve">
<style type="text/css">
	.st0{fill:#AD5C98;}
	.st1{fill:#F1B300;}
	.st2{fill:#DF88B0;}
	.st3{fill:#D2D800;}
	.st4{fill:#FFD200;}
	.st5{fill:#76C6ED;}
	.st6{fill:#FDCA71;}
	.st7{fill:#E76456;}
	.st8{fill:#F9AF00;}
	.st9{fill:#ABDDF2;}
	.st10{fill:#93C12A;}
	.st11{fill:#00B9E8;}
	.st12{fill:#DBDE51;}
	.st13{fill:#ABC923;}
	.st14{fill:#DAC600;}
	.st15{fill:#DFB7D7;}
	.st16{fill:#C66BA4;}
	.st17{fill:#7F95CC;}
</style>
<g>
	<g>
		<path class="st0" d="M91.8,28.6c-1.6,1.8-4.3,3-7.5,3c-5.7,0-9.4-4.1-9.4-9.6c0-5.6,4-9.6,9.4-9.6c2.4,0,4.7,0.7,6.3,2.4
			c0.3,0.2,0.4,0.5,0.4,0.9c0,0.7-0.5,1.2-1.1,1.2c0,0-0.1,0-0.1,0c-0.3,0-0.6-0.1-0.9-0.3c-1.3-1.1-2.9-1.7-4.6-1.7
			c-4,0-6.7,3.2-6.7,7.1s2.3,7.3,6.7,7.3c1.9,0.1,3.7-0.5,5.1-1.7v-3.4H85c-0.7,0-1.2-0.5-1.2-1.2c0,0,0,0,0,0
			c0-0.7,0.5-1.2,1.2-1.2c0,0,0,0,0,0h5.7c0.7,0,1.3,0.5,1.3,1.2c0,0,0,0.1,0,0.1v4.6C92.1,28.1,92,28.4,91.8,28.6"/>
		<path class="st0" d="M108.4,31.2H97.7c-0.7,0-1.3-0.5-1.4-1.3c0,0,0-0.1,0-0.1V14c0-0.7,0.6-1.3,1.3-1.3c0,0,0,0,0,0H108
			c0.7,0,1.2,0.5,1.2,1.2c0,0.7-0.5,1.2-1.2,1.2h0h-9v5.4h5.1c0.7,0,1.2,0.5,1.2,1.2c0,0,0,0,0,0c0,0.7-0.5,1.2-1.2,1.2c0,0,0,0,0,0
			H99v5.8h9.4c0.7,0,1.2,0.5,1.3,1.1c0,0,0,0.1,0,0.1C109.7,30.7,109.1,31.2,108.4,31.2L108.4,31.2z"/>
		<path class="st0" d="M125.7,31.2h-11.8c-0.6,0.1-1.2-0.4-1.3-1.1c0-0.1,0-0.1,0-0.2c0-0.3,0.1-0.5,0.3-0.8l10.3-14.1H114
			c-0.7,0-1.2-0.5-1.3-1.2c0,0,0-0.1,0-0.1c0-0.6,0.5-1.2,1.2-1.2c0,0,0.1,0,0.1,0h11.6c0.6,0,1.1,0.4,1.2,1c0,0.1,0,0.1,0,0.2
			c0,0.3-0.1,0.6-0.3,0.8l-10.3,14.1h9.5c0.6,0,1.2,0.5,1.2,1.1c0,0,0,0,0,0.1C126.9,30.7,126.4,31.2,125.7,31.2
			C125.7,31.2,125.7,31.2,125.7,31.2"/>
		<path class="st0" d="M138.8,14.8c-4.3,0-6.7,3.4-6.7,7.2s2.4,7.2,6.7,7.2c4.3,0,6.7-3.4,6.7-7.2S143.1,14.8,138.8,14.8
			 M138.8,31.6c-5.7,0-9.4-4.4-9.4-9.6c0-5.2,3.8-9.6,9.4-9.6s9.4,4.4,9.4,9.6C148.2,27.2,144.5,31.6,138.8,31.6"/>
		<path class="st0" d="M166.5,31.5c-0.4,0-0.8-0.2-1-0.5l-10.7-13.6v12.8c0,0.7-0.6,1.3-1.3,1.3c-0.7,0-1.3-0.6-1.3-1.3V13.7
			c-0.1-0.7,0.4-1.2,1.1-1.3c0.1,0,0.1,0,0.2,0c0.4,0,0.8,0.2,1,0.5l10.6,13.5V13.7c0-0.7,0.5-1.2,1.1-1.3c0,0,0.1,0,0.1,0
			c0.7,0,1.2,0.5,1.3,1.1c0,0.1,0,0.1,0,0.2v16.5C167.8,30.9,167.2,31.4,166.5,31.5C166.5,31.5,166.5,31.5,166.5,31.5"/>
		<path class="st0" d="M179.2,15.1h-3.8v13.7h3.8c4.3,0,6.7-2.8,6.7-6.8S183.5,15.1,179.2,15.1L179.2,15.1z M179.3,31.2h-5.1
			c-0.8,0-1.4-0.6-1.4-1.4V14.1c0-0.8,0.6-1.4,1.4-1.4h5.1c5.7,0,9.3,4,9.3,9.3C188.6,27.3,185,31.2,179.3,31.2"/>
		<path class="st0" d="M204.6,31.2h-10.7c-0.7,0-1.3-0.5-1.4-1.3c0,0,0-0.1,0-0.1V14c0-0.7,0.6-1.3,1.3-1.3c0,0,0,0,0,0h10.3
			c0.7,0,1.2,0.5,1.2,1.2c0,0.7-0.5,1.2-1.2,1.2h0h-9v5.4h5.1c0.7,0,1.2,0.5,1.2,1.2v0c0,0.7-0.5,1.2-1.2,1.2c0,0,0,0,0,0h-5.1v5.8
			h9.4c0.7,0,1.2,0.5,1.3,1.1c0,0,0,0.1,0,0.1C205.8,30.7,205.2,31.2,204.6,31.2L204.6,31.2z"/>
		<path class="st0" d="M221.6,31.6c-2.4,0-4.7-0.7-6.6-2.1c-0.4-0.3-0.7-0.7-0.7-1.3c0-0.6,0.5-1.1,1.1-1.1c0,0,0,0,0.1,0
			c0.3,0,0.7,0.1,0.9,0.3c1.5,1,3,1.7,5.2,1.7c3,0,4.4-1.2,4.4-2.8c0-1.9-1.6-2.4-5-3.5c-5-1.5-6.5-3-6.5-5.6c0-3.3,3-5,7.1-5
			c1.4,0,2.9,0.3,4.2,0.8c0.9,0.4,2.3,1,2.3,1.9c0.1,0.6-0.4,1.1-0.9,1.2c-0.1,0-0.1,0-0.2,0c-0.2,0-0.4,0-0.5-0.1
			c-1.4-0.9-3.1-1.3-4.8-1.4c-2.7,0-4.5,0.8-4.5,2.6c0,1.6,1.4,2.2,4.6,3.2c4.5,1.4,6.9,2.6,6.9,5.8
			C228.7,29.3,226.2,31.6,221.6,31.6"/>
		<path class="st0" d="M248,15.4c0.2,0.3,0.4,0.6,0.4,0.9c0,0.6-0.4,1.1-1.1,1.2c0,0-0.1,0-0.1,0c-0.5,0-0.9-0.3-1.2-0.6
			c-1.2-1.4-3-2.2-4.8-2.1c-4.5,0-6.9,3.3-6.9,7.2s2.4,7.2,6.9,7.2c1.8,0,3.6-0.7,4.8-2.1c0.3-0.4,0.7-0.6,1.2-0.6
			c0.6,0,1.2,0.4,1.2,1c0,0,0,0.1,0,0.1c0,0.3-0.1,0.7-0.4,0.9c-1.4,1.8-4,3.1-7,3.1c-5.8,0-9.4-4.4-9.4-9.6c0-5.2,3.6-9.6,9.4-9.6
			C244,12.3,246.6,13.7,248,15.4"/>
		<path class="st0" d="M266.3,31.5c-0.7,0-1.3-0.6-1.3-1.3c0,0,0,0,0,0V23h-10v7.1c0,0.7-0.5,1.3-1.2,1.4c0,0,0,0-0.1,0
			c-0.7,0-1.3-0.6-1.4-1.3c0,0,0,0,0-0.1V13.8c0-0.7,0.5-1.3,1.3-1.4c0,0,0.1,0,0.1,0c0.7,0,1.3,0.6,1.3,1.3c0,0,0,0,0,0v6.6h10
			v-6.6c0-0.7,0.6-1.3,1.3-1.4c0,0,0,0,0,0c0.7,0,1.3,0.6,1.3,1.3c0,0,0,0.1,0,0.1v16.3C267.7,30.8,267.1,31.4,266.3,31.5
			C266.4,31.5,266.3,31.5,266.3,31.5"/>
		<path class="st0" d="M281.1,14.8c-4.3,0-6.7,3.4-6.7,7.2s2.4,7.2,6.7,7.2c4.3,0,6.7-3.4,6.7-7.2S285.4,14.8,281.1,14.8L281.1,14.8
			z M281.1,31.6c-5.7,0-9.4-4.4-9.4-9.6c0-5.2,3.8-9.6,9.4-9.6c5.7,0,9.4,4.4,9.4,9.6C290.5,27.2,286.8,31.6,281.1,31.6"/>
		<path class="st0" d="M303,14.8c-4.3,0-6.7,3.4-6.7,7.2s2.4,7.2,6.7,7.2c4.3,0,6.7-3.4,6.7-7.2S307.3,14.8,303,14.8L303,14.8z
			 M303,31.6c-5.7,0-9.4-4.4-9.4-9.6c0-5.2,3.8-9.6,9.4-9.6c5.7,0,9.4,4.4,9.4,9.6C312.4,27.2,308.7,31.6,303,31.6"/>
		<path class="st0" d="M316.5,29.9v-16c0-0.7,0.5-1.3,1.3-1.4c0,0,0.1,0,0.1,0c0.7,0,1.3,0.5,1.3,1.2c0,0,0,0.1,0,0.1v14.9h8.9
			c0.7,0,1.2,0.5,1.3,1.2c0,0.7-0.6,1.3-1.3,1.3h-10.2C317.1,31.3,316.5,30.7,316.5,29.9C316.5,29.9,316.5,29.9,316.5,29.9"/>
	</g>
	<g>
		<path class="st1" d="M78.7,53.1c-0.2,0.2-0.5,0.3-0.8,0.3c-0.3,0-0.6-0.1-0.8-0.3c-0.2-0.2-0.3-0.5-0.3-0.8V40.2
			c0-0.3,0.1-0.6,0.3-0.8c0.2-0.2,0.5-0.3,0.8-0.3c0.3,0,0.6,0.1,0.8,0.3c0.2,0.2,0.3,0.5,0.3,0.8v12.1C79.1,52.6,79,52.9,78.7,53.1
			z"/>
		<path class="st1" d="M94.6,53.1c-0.2,0.2-0.5,0.3-0.8,0.3c-0.3,0-0.6-0.1-0.8-0.4l-7.4-10v9.3c0,0.3-0.1,0.5-0.3,0.7
			c-0.2,0.2-0.5,0.3-0.8,0.3s-0.5-0.1-0.7-0.3c-0.2-0.2-0.3-0.5-0.3-0.7V40.2c0-0.3,0.1-0.5,0.3-0.7c0.2-0.2,0.5-0.3,0.8-0.3
			c0.2,0,0.3,0,0.5,0.1c0.1,0.1,0.3,0.2,0.3,0.3c0.4,0.6,0.8,1.2,1.2,1.7c0.4,0.5,0.8,1.1,1.3,1.8c0.5,0.7,1,1.4,1.6,2.1
			c0.5,0.7,1.1,1.5,1.7,2.3c0.6,0.8,1.1,1.5,1.7,2.2v-9.3c0-0.3,0.1-0.5,0.3-0.8c0.2-0.2,0.5-0.3,0.7-0.3c0.3,0,0.5,0.1,0.8,0.3
			c0.2,0.2,0.3,0.5,0.3,0.8v12.2C94.9,52.7,94.8,52.9,94.6,53.1z"/>
		<path class="st1" d="M109.2,51.4c-0.3,0.5-0.7,1-1.3,1.3c-0.5,0.3-1.1,0.6-1.8,0.7c-0.7,0.1-1.4,0.2-2.1,0.2c-0.4,0-0.9,0-1.4-0.1
			c-0.5-0.1-1-0.1-1.5-0.3c-0.5-0.1-1-0.3-1.4-0.5c-0.4-0.2-0.8-0.5-1.2-0.7c-0.1-0.1-0.2-0.2-0.3-0.4c-0.1-0.2-0.1-0.3-0.1-0.5
			c0-0.1,0-0.2,0-0.3c0-0.1,0.1-0.2,0.1-0.3c0.2-0.3,0.5-0.4,0.8-0.4c0.2,0,0.5,0.1,0.7,0.2c0.7,0.4,1.4,0.7,2.1,0.9
			c0.7,0.2,1.4,0.3,2.1,0.3c0.3,0,0.7,0,1.1-0.1c0.4-0.1,0.7-0.2,1.1-0.3c0.3-0.1,0.6-0.3,0.8-0.6c0.2-0.3,0.3-0.6,0.3-1
			c0-0.4-0.1-0.7-0.4-0.9c-0.3-0.3-0.6-0.5-1.1-0.7c-0.4-0.2-1-0.4-1.6-0.6c-0.6-0.2-1.2-0.4-1.9-0.6c-0.5-0.2-0.9-0.4-1.4-0.6
			c-0.4-0.2-0.8-0.5-1.2-0.8c-0.3-0.3-0.6-0.7-0.8-1.1c-0.2-0.4-0.3-0.9-0.3-1.5c0-0.7,0.2-1.3,0.5-1.8c0.3-0.5,0.7-0.9,1.3-1.2
			c0.5-0.3,1.1-0.5,1.7-0.6c0.6-0.1,1.3-0.2,2-0.2c0.4,0,0.8,0,1.2,0.1c0.4,0.1,0.8,0.1,1.2,0.2c0.4,0.1,0.8,0.2,1.2,0.3
			c0.4,0.1,0.8,0.3,1.1,0.5c0.2,0.1,0.3,0.2,0.4,0.4c0.1,0.2,0.1,0.3,0.1,0.5c0,0.2,0,0.3-0.1,0.5c-0.1,0.2-0.2,0.3-0.4,0.4
			c-0.2,0.1-0.3,0.1-0.5,0.1c-0.2,0-0.4,0-0.5-0.1c-0.5-0.2-1.1-0.4-1.7-0.6c-0.6-0.2-1.3-0.3-2-0.3c-0.3,0-0.7,0-1,0.1
			c-0.4,0-0.7,0.1-1,0.3c-0.3,0.1-0.6,0.3-0.8,0.5c-0.2,0.2-0.3,0.5-0.3,0.9c0,0.4,0.2,0.7,0.5,0.9c0.3,0.3,0.7,0.5,1.1,0.7
			c0.4,0.2,0.9,0.4,1.4,0.6c0.5,0.2,1,0.3,1.4,0.4c0.6,0.2,1.1,0.4,1.6,0.6c0.5,0.2,0.9,0.5,1.3,0.8c0.4,0.3,0.7,0.7,0.9,1.1
			c0.2,0.4,0.3,0.9,0.3,1.5C109.7,50.2,109.5,50.8,109.2,51.4z"/>
		<path class="st1" d="M124.3,45.1c-0.2,0.5-0.5,1-0.9,1.3c-0.4,0.4-0.9,0.7-1.5,0.9c-0.6,0.2-1.3,0.3-2.1,0.3h-4.3v4.6
			c0,0.3-0.1,0.6-0.3,0.8c-0.2,0.2-0.5,0.3-0.8,0.3c-0.3,0-0.6-0.1-0.8-0.3c-0.2-0.2-0.3-0.5-0.3-0.8V40.4c0-0.3,0.1-0.6,0.3-0.8
			c0.2-0.2,0.5-0.3,0.8-0.3h5.4c0.8,0,1.5,0.1,2.1,0.3c0.6,0.2,1.1,0.5,1.5,0.9c0.4,0.4,0.7,0.8,0.9,1.3c0.2,0.5,0.3,1,0.3,1.6
			C124.6,44.1,124.5,44.6,124.3,45.1z M122.2,42.7c-0.1-0.3-0.2-0.5-0.4-0.7c-0.2-0.2-0.4-0.4-0.7-0.5c-0.3-0.1-0.6-0.2-1-0.2h-4.6
			v4.3h4.6c0.4,0,0.7-0.1,1-0.2c0.3-0.1,0.5-0.3,0.7-0.5c0.2-0.2,0.3-0.4,0.4-0.7c0.1-0.3,0.1-0.5,0.1-0.8
			C122.3,43.2,122.3,43,122.2,42.7z"/>
		<path class="st1" d="M129.2,53.1c-0.2,0.2-0.5,0.3-0.8,0.3c-0.3,0-0.6-0.1-0.8-0.3c-0.2-0.2-0.3-0.5-0.3-0.8V40.2
			c0-0.3,0.1-0.6,0.3-0.8c0.2-0.2,0.5-0.3,0.8-0.3c0.3,0,0.6,0.1,0.8,0.3c0.2,0.2,0.3,0.5,0.3,0.8v12.1
			C129.5,52.6,129.4,52.9,129.2,53.1z"/>
		<path class="st1" d="M144.7,45.6c-0.4,0.7-1.1,1.1-1.9,1.4c0.1,0.1,0.2,0.3,0.3,0.7c0.2,0.3,0.4,0.8,0.7,1.5s0.8,1.6,1.3,2.7
			c0.1,0.1,0.1,0.3,0.1,0.5c0,0.2-0.1,0.4-0.2,0.6c-0.1,0.2-0.3,0.3-0.5,0.4c-0.1,0.1-0.3,0.1-0.5,0.1c-0.2,0-0.4-0.1-0.6-0.2
			c-0.2-0.1-0.3-0.3-0.4-0.5l-2.6-5.4h-4.4v4.9c0,0.3-0.1,0.6-0.3,0.8c-0.2,0.2-0.5,0.3-0.8,0.3c-0.3,0-0.6-0.1-0.8-0.3
			c-0.2-0.2-0.3-0.5-0.3-0.8V40.4c0-0.3,0.1-0.6,0.3-0.8c0.2-0.2,0.5-0.3,0.8-0.3h5.5c0.7,0,1.3,0.1,1.9,0.2
			c0.6,0.2,1.1,0.4,1.5,0.7c0.4,0.3,0.8,0.8,1,1.3c0.2,0.5,0.4,1.1,0.4,1.8C145.3,44.2,145.1,45,144.7,45.6z M142.4,41.9
			c-0.4-0.4-0.9-0.6-1.6-0.6h-4.7v4.1h4.7c0.6,0,1.1-0.2,1.6-0.5c0.4-0.4,0.6-0.9,0.6-1.5C143.1,42.8,142.9,42.3,142.4,41.9z"/>
		<path class="st1" d="M160.4,52.9c-0.1,0.2-0.3,0.3-0.5,0.4c-0.2,0.1-0.3,0.1-0.4,0.1c-0.2,0-0.4-0.1-0.6-0.2s-0.3-0.3-0.4-0.5
			l-1.3-3h-6.5l-1.3,3c-0.1,0.2-0.2,0.4-0.4,0.5c-0.2,0.1-0.4,0.2-0.6,0.2c-0.2,0-0.3,0-0.4-0.1c-0.2-0.1-0.3-0.2-0.5-0.4
			c-0.1-0.2-0.2-0.4-0.2-0.6c0-0.2,0-0.3,0.1-0.5l5.5-12.2c0.1-0.2,0.2-0.3,0.4-0.5c0.2-0.1,0.4-0.2,0.6-0.2c0.2,0,0.4,0.1,0.6,0.2
			c0.2,0.1,0.3,0.3,0.4,0.5l5.5,12.2c0.1,0.1,0.1,0.3,0.1,0.4C160.6,52.6,160.5,52.8,160.4,52.9z M154,42.6l-2.4,5.3h4.8L154,42.6z"
			/>
		<path class="st1" d="M173.4,41.1c-0.2,0.2-0.5,0.3-0.7,0.3h-4.1v10.9c0,0.3-0.1,0.6-0.3,0.8c-0.2,0.2-0.5,0.3-0.8,0.3
			c-0.3,0-0.6-0.1-0.8-0.3c-0.2-0.2-0.3-0.5-0.3-0.8V41.4h-4.1c-0.3,0-0.5-0.1-0.7-0.3c-0.2-0.2-0.3-0.5-0.3-0.7
			c0-0.3,0.1-0.5,0.3-0.7c0.2-0.2,0.5-0.3,0.7-0.3h10.4c0.3,0,0.5,0.1,0.7,0.3c0.2,0.2,0.3,0.5,0.3,0.7
			C173.7,40.6,173.6,40.9,173.4,41.1z"/>
		<path class="st1" d="M177.9,53.1c-0.2,0.2-0.5,0.3-0.8,0.3c-0.3,0-0.6-0.1-0.8-0.3c-0.2-0.2-0.3-0.5-0.3-0.8V40.2
			c0-0.3,0.1-0.6,0.3-0.8c0.2-0.2,0.5-0.3,0.8-0.3c0.3,0,0.6,0.1,0.8,0.3c0.2,0.2,0.3,0.5,0.3,0.8v12.1
			C178.3,52.6,178.1,52.9,177.9,53.1z"/>
		<path class="st1" d="M192.7,53c-0.2,0.2-0.5,0.3-0.7,0.3h-8.1c-0.3,0-0.6-0.1-0.8-0.3c-0.2-0.2-0.3-0.5-0.3-0.8V40.4
			c0-0.3,0.1-0.6,0.3-0.8c0.2-0.2,0.5-0.3,0.8-0.3h7.8c0.3,0,0.5,0.1,0.8,0.3c0.2,0.2,0.3,0.4,0.3,0.7c0,0.3-0.1,0.5-0.3,0.8
			c-0.2,0.2-0.5,0.3-0.8,0.3h-6.7v3.7h3.7c0.3,0,0.5,0.1,0.7,0.3c0.2,0.2,0.3,0.5,0.3,0.7c0,0.3-0.1,0.5-0.3,0.7
			c-0.2,0.2-0.5,0.3-0.7,0.3h-3.7v4h7c0.3,0,0.5,0.1,0.7,0.3c0.2,0.2,0.3,0.5,0.3,0.7C193,52.5,192.9,52.8,192.7,53z"/>
	</g>
	<g>
		<path class="st2" d="M33.8,46.1l3.3-3.3h-8.2l3.3,3.3c0.3,0.3,0.4,0.9,0,1.3c0,0,0,0,0,0l-8.8,8.8V61c0,0.7,0.9,1,0.9,1l8.3,3.8
			c0.1,0.1,0.3,0.1,0.5,0.1c0.2,0,0.3,0,0.4-0.1l8.3-3.8c0,0,0.9-0.3,0.9-1v-4.8l-8.8-8.8C33.5,47.1,33.5,46.5,33.8,46.1
			C33.8,46.1,33.8,46.1,33.8,46.1"/>
		<path class="st3" d="M32.1,19.8L28.8,23h8.2l-3.3-3.3c-0.3-0.3-0.4-0.9,0-1.3c0,0,0,0,0,0l8.8-8.8V4.9c0-0.7-0.9-1-0.9-1l-8.3-3.8
			C33.3,0,33.1,0,33,0c-0.2,0-0.3,0-0.4,0.1l-8.3,3.8c0,0-0.9,0.3-0.9,1v4.9l8.8,8.8C32.4,18.9,32.4,19.4,32.1,19.8L32.1,19.8"/>
		<path class="st4" d="M65.8,32.5L62,24.2c0,0-0.3-0.9-1-0.9h-4.8l-8.8,8.8c-0.3,0.3-0.9,0.4-1.3,0c0,0,0,0,0,0l-3.3-3.3v8.2
			l3.3-3.3c0.3-0.3,0.9-0.3,1.3,0c0,0,0,0,0,0l8.7,8.8H61c0.7,0,1-0.9,1-0.9l3.8-8.3c0.1-0.1,0.1-0.3,0.1-0.5
			C65.9,32.8,65.9,32.7,65.8,32.5"/>
		<path class="st5" d="M19.8,33.8l3.3,3.3v-8.2l-3.3,3.3c-0.3,0.3-0.9,0.4-1.3,0c0,0,0,0,0,0l-8.7-8.8H4.9c-0.7,0-1,0.9-1,0.9
			l-3.8,8.3C0,32.6,0,32.8,0,32.9c0,0.2,0,0.3,0.1,0.4l3.8,8.3c0,0,0.3,0.9,1,0.9h4.8l8.8-8.8C18.9,33.5,19.4,33.5,19.8,33.8
			C19.8,33.8,19.8,33.8,19.8,33.8"/>
		<path class="st6" d="M42.9,41.7v-4.6l-5.8,5.8h4.6c0.5,0,0.9,0.4,0.9,0.9v12.4l3.4,3.4c0.5,0.5,1.3,0.1,1.3,0.1l8.5-3.2
			c0.1-0.1,0.3-0.1,0.4-0.2c0.1-0.1,0.2-0.2,0.2-0.4l3.2-8.6c0,0,0.4-0.8-0.1-1.3l-3.4-3.4H43.8C43.3,42.6,42.9,42.2,42.9,41.7"/>
		<path class="st7" d="M41.7,42.9h-4.6l-3.3,3.3c-0.3,0.3-0.4,0.9,0,1.3c0,0,0,0,0,0l8.8,8.7V43.8C42.6,43.3,42.2,42.9,41.7,42.9
			L41.7,42.9z"/>
		<path class="st8" d="M46.1,33.8l-3.3,3.3v4.6c0,0.5,0.4,0.9,0.9,0.9h12.4l-8.8-8.8C47,33.5,46.5,33.5,46.1,33.8"/>
		<path class="st9" d="M23,24.2v4.6l5.8-5.8h-4.6c-0.5,0-0.9-0.4-0.9-0.9V9.8l-3.4-3.4c-0.5-0.5-1.3-0.1-1.3-0.1l-8.5,3.2
			C9.9,9.4,9.8,9.5,9.7,9.6C9.6,9.7,9.5,9.9,9.4,10l-3.2,8.6c0,0-0.4,0.8,0.1,1.3l3.4,3.4h12.4C22.6,23.3,23,23.7,23,24.2L23,24.2z"
			/>
		<path class="st10" d="M24.2,23h4.6l3.3-3.3c0.3-0.3,0.4-0.9,0-1.3c0,0,0,0,0,0l-8.8-8.8v12.4C23.3,22.6,23.7,23,24.2,23L24.2,23z"
			/>
		<path class="st11" d="M19.8,32.1l3.3-3.3v-4.6c0-0.5-0.4-0.9-0.9-0.9H9.7l8.8,8.8C18.9,32.4,19.4,32.4,19.8,32.1
			C19.8,32.1,19.8,32.1,19.8,32.1"/>
		<path class="st12" d="M41.7,23h-4.6l5.8,5.8v-4.6c0-0.5,0.4-0.9,0.9-0.9h12.4l3.4-3.4c0.5-0.5,0.1-1.3,0.1-1.3l-3.2-8.5
			c-0.1-0.1-0.1-0.3-0.2-0.4c-0.1-0.1-0.2-0.2-0.4-0.2l-8.6-3.2c0,0-0.8-0.4-1.3,0.1l-3.4,3.4v12.4C42.6,22.6,42.2,23,41.7,23"/>
		<path class="st13" d="M33.8,19.8l3.3,3.3h4.6c0.5,0,0.9-0.4,0.9-0.9V9.7l-8.7,8.8C33.5,18.9,33.5,19.4,33.8,19.8"/>
		<path class="st14" d="M42.9,24.2v4.6l3.3,3.3c0.3,0.3,0.9,0.4,1.3,0c0,0,0,0,0,0l8.8-8.8H43.8C43.3,23.3,42.9,23.7,42.9,24.2
			L42.9,24.2z"/>
		<path class="st15" d="M24.2,42.9h4.6L23,37.1v4.6c0,0.5-0.4,0.9-0.9,0.9H9.8L6.3,46c-0.5,0.5-0.1,1.3-0.1,1.3l3.2,8.5
			c0.1,0.1,0.1,0.3,0.2,0.4c0.1,0.1,0.2,0.2,0.4,0.2l8.6,3.2c0,0,0.8,0.4,1.3-0.1l3.4-3.4V43.8C23.3,43.3,23.7,42.9,24.2,42.9"/>
		<path class="st16" d="M32.1,46.1l-3.3-3.3h-4.6c-0.5,0-0.9,0.4-0.9,0.9v12.4l8.8-8.8C32.4,47.1,32.4,46.5,32.1,46.1"/>
		<path class="st17" d="M23,41.7v-4.6l-3.3-3.3c-0.3-0.3-0.9-0.4-1.3,0c0,0,0,0,0,0l-8.8,8.8h12.4C22.6,42.6,23,42.2,23,41.7"/>
	</g>
</g>
</svg>
