<svg xmlns="http://www.w3.org/2000/svg" viewBox="0 0 322.74 437.27"><defs><style>.cls-1{fill:none;}.cls-2{fill:#c986ae;}.cls-3{fill:#d7df23;}.cls-4{fill:#f5d010;}.cls-5{fill:#92c5eb;}.cls-6{fill:#ffce71;}.cls-7{fill:#cb6457;}.cls-8{fill:#f0b11d;}.cls-9{fill:#b9e5fb;}.cls-10{fill:#a6ce39;}.cls-11{fill:#65bbe9;}.cls-12{fill:#dee459;}.cls-13{fill:#b7d433;}.cls-14{fill:#d4c528;}.cls-15{fill:#d3b6d7;}.cls-16{fill:#b16aa0;}.cls-17{fill:#8595cb;}.cls-18{fill:#995c93;}</style></defs><title>Asset 4</title><g id="Layer_2" data-name="Layer 2"><g id="Layer_1-2" data-name="Layer 1"><polygon class="cls-1" points="141.24 112.75 112.75 141.23 112.74 181.51 141.22 210 181.5 210 209.99 181.52 210 141.25 181.52 112.76 141.24 112.75"/><path class="cls-2" d="M165.56,225.94,181.5,210H141.22l15.94,15.95a4.36,4.36,0,0,1,0,6.18L114.3,275v23.74c0,3.49,4.24,5.07,4.24,5.07L159,322.22a6.09,6.09,0,0,0,2.22.53,5.72,5.72,0,0,0,2.17-.51l40.84-18.6s4.23-1.31,4.23-4.91V275l-42.87-42.88A4.34,4.34,0,0,1,165.56,225.94Z"/><path class="cls-3" d="M157.18,96.81l-15.94,15.94h40.28l-15.94-16a4.36,4.36,0,0,1,0-6.18l42.86-42.88V24c0-3.49-4.24-5.07-4.24-5.07L163.76.53A6.09,6.09,0,0,0,161.54,0a5.72,5.72,0,0,0-2.17.51l-40.84,18.6S114.3,20.42,114.3,24V47.76l42.87,42.88A4.36,4.36,0,0,1,157.18,96.81Z"/><path class="cls-4" d="M322.23,159.38l-18.6-40.83s-1.31-4.23-4.91-4.23H275L232.1,157.19a4.36,4.36,0,0,1-6.18,0L210,141.25v40.28l16-15.94a4.36,4.36,0,0,1,6.18,0L275,208.45h23.74c3.49,0,5.07-4.24,5.07-4.24l18.41-40.44a6.09,6.09,0,0,0,.53-2.22A5.66,5.66,0,0,0,322.23,159.38Z"/><path class="cls-5" d="M96.81,165.57l15.94,15.94V141.23l-16,15.94a4.36,4.36,0,0,1-6.18,0L47.75,114.31H24c-3.49,0-5.07,4.24-5.07,4.24L.53,159A6.09,6.09,0,0,0,0,161.21a5.72,5.72,0,0,0,.51,2.17l18.6,40.84s1.31,4.23,4.91,4.23H47.76l42.88-42.87A4.34,4.34,0,0,1,96.81,165.57Z"/><path class="cls-6" d="M210,204.06V181.52L181.49,210H204a4.37,4.37,0,0,1,4.37,4.37V275l16.78,16.79c2.47,2.47,6.58.59,6.58.59l41.61-15.58a6,6,0,0,0,1.94-1.2,5.75,5.75,0,0,0,1.18-1.89l15.75-42s2.07-3.92-.48-6.46L275,208.45H214.35A4.38,4.38,0,0,1,210,204.06Z"/><path class="cls-7" d="M204.05,210H181.5L165.56,226a4.36,4.36,0,0,0,0,6.18L208.43,275V214.38A4.36,4.36,0,0,0,204.05,210Z"/><path class="cls-8" d="M225.94,165.58,210,181.52v22.54a4.37,4.37,0,0,0,4.37,4.37H275l-42.88-42.86A4.38,4.38,0,0,0,225.94,165.58Z"/><path class="cls-9" d="M112.75,118.69v22.54l28.49-28.48H118.69a4.37,4.37,0,0,1-4.37-4.37V47.76L97.53,31C95.06,28.5,91,30.38,91,30.38L49.34,46a6,6,0,0,0-1.94,1.2,5.75,5.75,0,0,0-1.18,1.89l-15.73,42S28.42,95,31,97.53l16.79,16.78H108.4A4.36,4.36,0,0,1,112.75,118.69Z"/><path class="cls-10" d="M118.69,112.75h22.55l15.94-15.94a4.36,4.36,0,0,0,0-6.18L114.31,47.75v60.62A4.37,4.37,0,0,0,118.69,112.75Z"/><path class="cls-11" d="M96.8,157.17l16-15.94V118.69a4.37,4.37,0,0,0-4.37-4.37H47.74l42.88,42.86A4.36,4.36,0,0,0,96.8,157.17Z"/><path class="cls-12" d="M204.06,112.76H181.52L210,141.25V118.7a4.37,4.37,0,0,1,4.37-4.37H275l16.79-16.78c2.47-2.47.59-6.58.59-6.58L276.79,49.35a6,6,0,0,0-1.2-1.94,5.75,5.75,0,0,0-1.89-1.18l-42-15.73s-3.92-2.07-6.46.48L208.43,47.77v60.62A4.37,4.37,0,0,1,204.06,112.76Z"/><path class="cls-13" d="M165.57,96.81l15.94,16h22.54a4.37,4.37,0,0,0,4.37-4.37V47.75L165.57,90.63A4.38,4.38,0,0,0,165.57,96.81Z"/><path class="cls-14" d="M210,118.69v22.55l15.93,15.94a4.36,4.36,0,0,0,6.18,0L275,114.31H214.37A4.37,4.37,0,0,0,210,118.69Z"/><path class="cls-15" d="M118.68,210h22.54L112.74,181.5v22.55a4.37,4.37,0,0,1-4.37,4.37H47.75L31,225.21c-2.47,2.47-.59,6.59-.59,6.59L46,273.41a6,6,0,0,0,1.2,1.94A5.75,5.75,0,0,0,49,276.53l42,15.72s3.92,2.07,6.46-.47L114.3,275V214.35A4.37,4.37,0,0,1,118.68,210Z"/><path class="cls-16" d="M157.16,226,141.22,210H118.68a4.37,4.37,0,0,0-4.37,4.37V275l42.86-42.88A4.36,4.36,0,0,0,157.16,226Z"/><path class="cls-17" d="M112.74,204.06V181.51L96.8,165.57a4.36,4.36,0,0,0-6.18,0L47.74,208.44h60.62A4.38,4.38,0,0,0,112.74,204.06Z"/><path class="cls-18" d="M70.9,379.89c-3.06,3.37-8,5.5-13.9,5.5-10.53,0-17.58-7.67-17.58-17.89,0-10.48,7.41-17.89,17.47-17.89,4.51,0,8.76,1.3,11.72,4.41a2.33,2.33,0,0,1,.78,1.66A2.21,2.21,0,0,1,67.11,358a2.79,2.79,0,0,1-1.66-.62,13.17,13.17,0,0,0-8.56-3.11c-7.52,0-12.45,5.91-12.45,13.28S48.8,381.1,57,381.1A14.56,14.56,0,0,0,66.58,378v-6.38H58.34a2.27,2.27,0,0,1-2.28-2.28,2.23,2.23,0,0,1,2.28-2.23H69a2.38,2.38,0,0,1,2.49,2.54v8.6A2,2,0,0,1,70.9,379.89Z"/><path class="cls-18" d="M101.82,384.76H81.91a2.44,2.44,0,0,1-2.54-2.49V352.71a2.5,2.5,0,0,1,2.54-2.49h19.14a2.28,2.28,0,1,1,0,4.56H84.35v10h9.44a2.27,2.27,0,0,1,2.28,2.28,2.24,2.24,0,0,1-2.28,2.28H84.35v10.84h17.48a2.26,2.26,0,0,1,2.39,2.28A2.35,2.35,0,0,1,101.82,384.76Z"/><path class="cls-18" d="M134,384.76H112a2.18,2.18,0,0,1-2.39-2.28,2.41,2.41,0,0,1,.57-1.4l19.14-26.34H112.25a2.26,2.26,0,0,1-2.33-2.34,2.17,2.17,0,0,1,2.33-2.18h21.62a2.06,2.06,0,0,1,2.18,2.23,2.67,2.67,0,0,1-.57,1.5l-19.14,26.29H134a2.19,2.19,0,0,1,2.28,2.23A2.22,2.22,0,0,1,134,384.76Z"/><path class="cls-18" d="M158.47,385.38c-10.53,0-17.53-8.14-17.53-17.89s7-17.89,17.53-17.89S176,357.74,176,367.49,169,385.38,158.47,385.38Zm0-31.27c-8,0-12.55,6.27-12.55,13.38s4.51,13.38,12.55,13.38S171,374.59,171,367.49,166.51,354.11,158.47,354.11Z"/><path class="cls-18" d="M210,385.18a2.19,2.19,0,0,1-1.87-.88L188.25,359v23.85a2.36,2.36,0,0,1-4.72,0V352.19a2.22,2.22,0,0,1,2.44-2.38,2.32,2.32,0,0,1,1.87,1L207.65,376V352.2a2.26,2.26,0,0,1,2.39-2.38,2.21,2.21,0,0,1,2.33,2.38v30.65A2.26,2.26,0,0,1,210,385.18Z"/><path class="cls-18" d="M233.84,384.76h-9.59a2.54,2.54,0,0,1-2.54-2.54V352.77a2.54,2.54,0,0,1,2.54-2.54h9.59c10.69,0,17.32,7.37,17.32,17.27S244.53,384.76,233.84,384.76Zm-.15-30h-7V380.2h7c7.94,0,12.5-5.29,12.5-12.7S241.62,354.79,233.69,354.79Z"/><path class="cls-18" d="M280.89,384.76H261a2.44,2.44,0,0,1-2.54-2.49V352.71a2.5,2.5,0,0,1,2.54-2.49h19.14a2.28,2.28,0,1,1,0,4.56h-16.7v10h9.44a2.27,2.27,0,0,1,2.28,2.28,2.24,2.24,0,0,1-2.28,2.28h-9.44v10.84H280.9a2.26,2.26,0,0,1,2.39,2.28A2.35,2.35,0,0,1,280.89,384.76Z"/><path class="cls-18" d="M68.36,437.26a20.88,20.88,0,0,1-12.24-3.84,3.15,3.15,0,0,1-1.35-2.33,2,2,0,0,1,2.12-2,3.47,3.47,0,0,1,1.76.62c2.85,1.82,5.5,3.22,9.75,3.22,5.5,0,8.19-2.23,8.19-5.19,0-3.48-3.06-4.56-9.28-6.43-9.23-2.75-12.14-5.6-12.14-10.48,0-6.22,5.5-9.33,13.28-9.33a22.37,22.37,0,0,1,7.83,1.45c1.76.67,4.2,1.92,4.2,3.53a2,2,0,0,1-2.13,2.23,1.9,1.9,0,0,1-1-.26,17.63,17.63,0,0,0-8.87-2.54c-5.08,0-8.35,1.45-8.35,4.82,0,3.06,2.54,4.15,8.51,6,8.3,2.59,12.91,4.82,12.91,10.73C81.59,433,77,437.26,68.36,437.26Z"/><path class="cls-18" d="M117.49,407.18a2.79,2.79,0,0,1,.67,1.76,2.08,2.08,0,0,1-2.23,2.18,2.81,2.81,0,0,1-2.18-1.19,11.67,11.67,0,0,0-9-3.94c-8.4,0-12.81,6.07-12.81,13.38s4.41,13.38,12.81,13.38a11.68,11.68,0,0,0,9-3.94,2.81,2.81,0,0,1,2.18-1.19,2.08,2.08,0,0,1,2.23,2.18,2.77,2.77,0,0,1-.67,1.76c-2.59,3.27-7.36,5.71-13.07,5.71-10.84,0-17.53-8.2-17.53-17.89s6.69-17.89,17.53-17.89C110.12,401.47,114.89,403.91,117.49,407.18Z"/><path class="cls-18" d="M151.62,437.05a2.5,2.5,0,0,1-2.49-2.54V421.23H130.51v13.28a2.43,2.43,0,0,1-2.44,2.54,2.48,2.48,0,0,1-2.54-2.54V404.22a2.44,2.44,0,0,1,2.49-2.54,2.47,2.47,0,0,1,2.49,2.54v12.34h18.62V404.22a2.47,2.47,0,0,1,2.49-2.54,2.44,2.44,0,0,1,2.49,2.54v30.29A2.47,2.47,0,0,1,151.62,437.05Z"/><path class="cls-18" d="M179.17,437.26c-10.53,0-17.53-8.14-17.53-17.89s7-17.89,17.53-17.89,17.53,8.14,17.53,17.89S189.7,437.26,179.17,437.26Zm0-31.27c-8,0-12.55,6.28-12.55,13.38s4.51,13.38,12.55,13.38,12.55-6.28,12.55-13.38S187.21,406,179.17,406Z"/><path class="cls-18" d="M219.94,437.26c-10.53,0-17.53-8.14-17.53-17.89s7-17.89,17.53-17.89,17.53,8.14,17.53,17.89S230.47,437.26,219.94,437.26Zm0-31.27c-8,0-12.55,6.28-12.55,13.38s4.51,13.38,12.55,13.38,12.55-6.28,12.55-13.38S228,406,219.94,406Z"/><path class="cls-18" d="M245,434.09V404.22a2.45,2.45,0,0,1,2.54-2.54,2.37,2.37,0,0,1,2.44,2.54V432h16.54a2.31,2.31,0,0,1,2.33,2.28,2.37,2.37,0,0,1-2.33,2.38h-19A2.48,2.48,0,0,1,245,434.09Z"/></g></g></svg>